#!OML:ASF F:\VICON\USERDATA\INSTALL\rory3\rory3.ASF
:FULLY-SPECIFIED
:DEGREES
2517
root 0.494568 17.7329 0.564096 10.2351 31.6299 -4.19931
lowerback 9.44832 6.78093 0.688175
upperback 3.87931 9.03917 -1.49031
thorax -0.861824 4.5413 -2.79305
lowerneck -23.061 -11.4294 -11.2767
upperneck 15.2964 -14.584 11.9206
head 10.4149 -6.12609 3.59533
rclavicle 2.29037e-014 2.99419e-015
rhumerus 44.1912 0.236473 -39.6031
rradius 58.0496
rwrist 51.9788
rhand -66.1972 -13.8094
rfingers 7.12502
rthumb -38.0292 -39.6007
lclavicle 2.29037e-014 2.99419e-015
lhumerus -30.1309 -3.27766 80.0514
lradius 59.1861
lwrist -3.92238
lhand -24.4403 23.5077
lfingers 7.12502
lthumb 2.05213 -306.522
rfemur -14.4011 -10.6751 16.0703
rtibia 24.8373
rfoot -21.6918 -16.6284
rtoes -3.30738
lfemur -30.9935 -4.34052 -12.1261
ltibia 34.2462
lfoot -12.4861 -5.66465
ltoes -17.3483
2518
root 0.486019 17.735 0.573198 10.111 31.7139 -4.35058
lowerback 9.45181 6.71751 0.531845
upperback 3.91724 8.94145 -1.55287
thorax -0.843002 4.49235 -2.7621
lowerneck -23.1857 -11.4316 -11.3667
upperneck 15.4211 -14.5629 11.9376
head 10.4875 -6.11184 3.61493
rclavicle 3.60918e-014 2.64881e-014
rhumerus 44.1123 1.32955 -38.4085
rradius 58.2224
rwrist 51.4711
rhand -66.0654 -14.0164
rfingers 7.12502
rthumb -37.9047 -39.8414
lclavicle 3.60918e-014 2.64881e-014
lhumerus -30.179 -2.99419 79.9444
lradius 59.1732
lwrist -3.69375
lhand -24.4928 23.43
lfingers 7.12502
lthumb 2.0014 -306.6
rfemur -14.305 -10.6903 16.2574
rtibia 24.7865
rfoot -21.6866 -16.685
rtoes -3.07897
lfemur -30.9442 -4.44026 -11.9121
ltibia 34.2505
lfoot -12.5184 -5.64095
ltoes -17.3527
2519
root 0.474947 17.7343 0.581246 10.0357 31.8112 -4.54315
lowerback 9.38756 6.68876 0.399008
upperback 3.94216 8.89241 -1.59361
thorax -0.798187 4.46774 -2.71787
lowerneck -23.3485 -11.4537 -11.554
upperneck 15.5891 -14.5698 12.0862
head 10.6068 -6.0983 3.68965
rclavicle -8.17999e-014 -1.56046e-014
rhumerus 43.954 2.43071 -37.1855
rradius 58.5223
rwrist 50.8329
rhand -65.4236 -14.8693
rfingers 7.12502
rthumb -37.2983 -40.8561
lclavicle -8.17999e-014 -1.56046e-014
lhumerus -30.2307 -2.70214 79.9236
lradius 59.1999
lwrist -3.6552
lhand -24.5237 23.4456
lfingers 7.12502
lthumb 1.97156 -306.584
rfemur -14.2951 -10.7394 16.5097
rtibia 24.7178
rfoot -21.6901 -16.7189
rtoes -2.82435
lfemur -31.007 -4.44418 -11.6644
ltibia 34.2704
lfoot -12.5035 -5.69294
ltoes -17.5697
2520
root 0.465035 17.7368 0.589557 10.0191 31.9232 -4.69713
lowerback 9.3191 6.69679 0.348415
upperback 3.9228 8.89753 -1.73273
thorax -0.765836 4.47176 -2.82479
lowerneck -23.317 -11.5198 -11.565
upperneck 15.6921 -14.6909 12.1515
head 10.6616 -6.14545 3.69137
rclavicle -1.01231e-013 2.82274e-014
rhumerus 43.5626 3.34152 -36.314
rradius 58.7782
rwrist 50.767
rhand -65.1681 -14.4924
rfingers 7.12502
rthumb -37.0566 -40.5422
lclavicle -1.01231e-013 2.82274e-014
lhumerus -30.2912 -2.68816 79.8177
lradius 59.2691
lwrist -3.63133
lhand -24.4659 23.472
lfingers 7.12502
lthumb 2.02745 -306.558
rfemur -14.3222 -10.81 16.7233
rtibia 24.6549
rfoot -21.7029 -16.7359
rtoes -2.6666
lfemur -31.1222 -4.39591 -11.4716
ltibia 34.3071
lfoot -12.5065 -5.82552
ltoes -17.5575
2521
root 0.456375 17.7406 0.599892 10.107 31.9785 -4.77924
lowerback 9.18954 6.69234 0.274209
upperback 3.84472 8.8828 -1.96546
thorax -0.750583 4.466 -3.00904
lowerneck -23.1487 -11.5507 -11.4974
upperneck 15.7188 -14.8118 12.2842
head 10.6657 -6.18784 3.70986
rclavicle -3.33958e-014 1.45113e-014
rhumerus 43.1816 4.20601 -35.7928
rradius 58.8857
rwrist 51.0459
rhand -65.3931 -13.1522
rfingers 7.12502
rthumb -37.2694 -39.1465
lclavicle -3.33958e-014 1.45113e-014
lhumerus -30.3611 -2.78749 79.5567
lradius 59.2792
lwrist -3.46149
lhand -24.4414 23.6636
lfingers 7.12502
lthumb 2.05103 -306.367
rfemur -14.4119 -10.953 16.8797
rtibia 24.6218
rfoot -21.6985 -16.6194
rtoes -2.87362
lfemur -31.2708 -4.47548 -11.3086
ltibia 34.3545
lfoot -12.5334 -5.79493
ltoes -17.3244
2522
root 0.447169 17.739 0.605049 9.99767 31.9953 -4.88485
lowerback 9.30739 6.6928 0.252507
upperback 3.82397 8.87739 -2.16556
thorax -0.807135 4.46494 -3.21735
lowerneck -23.2333 -11.5575 -11.3458
upperneck 15.8806 -14.8848 12.2901
head 10.7376 -6.20308 3.67169
rclavicle -1.05256e-013 3.99557e-014
rhumerus 42.9283 5.01435 -35.3603
rradius 58.8922
rwrist 51.4778
rhand -65.3842 -12.2133
rfingers 7.12502
rthumb -37.261 -38.2099
lclavicle -1.05256e-013 3.99557e-014
lhumerus -30.3253 -2.85844 79.3319
lradius 59.1501
lwrist -3.36793
lhand -24.4921 23.744
lfingers 7.12502
lthumb 2.00214 -306.286
rfemur -14.3208 -11.041 17.0144
rtibia 24.5825
rfoot -21.6029 -16.55
rtoes -3.20117
lfemur -31.2406 -4.51142 -11.1605
ltibia 34.4115
lfoot -12.5682 -5.7711
ltoes -17.2726
